<svg xmlns="http://www.w3.org/2000/svg" xml:space="preserve" viewBox="0 0 32 32"><style>.st9{opacity:.5;enable-background:new}</style><g id="Layer_2" style="display:none"><path d="M0 0h32v32H0z" style="display:inline;fill:#fff;fill-opacity:0"/></g><g id="Layer_1"><path d="M22.8 4.1V2.4h-1.7V.7h-1.7v1.7h-1.7v1.7H16V2.4h-1.7V.7h-1.7v1.7h-1.7v1.7H9.2v1.7H7.5v17h1.7v8.5h8.5v-3.4h1.7v-1.7h1.7v-1.7h1.7v-1.7h1.7V4.1z"/><path d="M21.1 4.1V2.4h-1.7v1.7h-1.7v1.7H16V4.1h-1.7V2.4h-1.7v1.7h-1.7v1.7H9.2v17h1.7v8.5H16v-3.4h-1.7v-1.7h5.1v-1.7h1.7v-1.7h1.7V4.1z" style="fill:tan"/><path d="M14.3 21.1h5.1v1.7h-5.1z" style="fill:purple"/><path d="M16 17.7h1.7v1.7H16z" style="opacity:.75"/><path d="M10.9 17.7h1.7v1.7h-1.7z" style="opacity:.25;fill:#b1aeac"/><path d="M10.9 10.9h3.4v1.7h-3.4zm8.5 0h3.4v1.7h-3.4z" style="opacity:.5;fill:#ff69b4"/><path d="M12.6 12.6h1.7v1.7h-1.7zm8.5 0h1.7v1.7h-1.7z" style="opacity:.75;fill:#fff"/><path d="M10.9 12.6h1.7v1.7h-1.7zm8.5 0h1.7v1.7h-1.7z" style="fill:#00f"/><path d="M22.8 4.1h1.7v1.7h-1.7z" class="st9"/><path d="M14.3 2.4h-1.7v1.7h-1.7v1.7H16V4.1h-1.7zm6.8 1.7V2.4h-1.7v1.7h-1.7v1.7h5.1V4.1z" style="opacity:.5;fill:tan"/><path d="M14.3 2.4H16v1.7h-1.7zM16 4.1h1.7v1.7H16zm1.7-1.7h1.7v1.7h-1.7zM19.4.7h1.7v1.7h-1.7zm1.7 1.7h1.7v1.7h-1.7zM12.6.7h1.7v1.7h-1.7zM9.2 4.1h1.7v1.7H9.2zm1.7-1.7h1.7v1.7h-1.7z" class="st9"/><path d="M19.4 4.1h1.7v1.7h-1.7zm-6.8 0h1.7v1.7h-1.7z" style="opacity:.25"/></g></svg>