<svg xmlns="http://www.w3.org/2000/svg" xml:space="preserve" id="Layer_1" x="0" y="0" version="1.1" viewBox="0 0 32 32"><style>.st9{opacity:.25;enable-background:new}</style><path d="M0 0h32v32H0z" style="fill:#f4f11a;fill-opacity:0"/><circle cx="16" cy="16" r="16" style="fill:#ed150e"/><path d="M21.3 10.7V9.3H20V8h-1.3v1.3h-1.3v1.3H16V9.3h-1.3V8h-1.3v1.3H12v1.3h-1.3V12H9.3v13.3h1.3V32h6.7v-2.7h1.3V28H20v-1.3h1.3v-1.3h1.3V10.7z"/><path d="M20 10.7V9.3h-1.3v1.3h-1.3V12H16v-1.3h-1.3V9.3h-1.3v1.3H12V12h-1.3v13.3H12V32h4v-2.7h-1.3V28h4v-1.3H20v-1.3h1.3V10.7z" style="fill:#d1b48c"/><path d="M14.7 24h4v1.3h-4z" style="fill:#f11786"/><path d="M16 21.3h1.3v1.3H16z" style="opacity:.75"/><path d="M18.7 12H20v1.3h-1.3zm-4 1.3H16v1.3h-1.3zm-5.4 4h1.3v1.3H9.3zm2.7 4h1.3v1.3H12zm6.7-2.6H20V20h-1.3zm1.3 4h1.3V24H20zm-4 4h1.3V28H16z" style="opacity:.25;fill:#bfa191"/><path d="M12 16h2.7v1.3H12zm6.7 0h2.7v1.3h-2.7z" style="opacity:.5;fill:#1c0f82"/><path d="M13.3 17.3h1.3v1.3h-1.3zm6.7 0h1.3v1.3H20z" style="opacity:.75;fill:#fff"/><path d="M12 17.3h1.3v1.3H12zm6.7 0H20v1.3h-1.3zm-4-8H20V4h-2.7v1.3H16v1.3h-1.3V8h-1.3v1.3z"/><path d="M17.3 5.3v1.3H16V8h-1.3v2.7h4V5.3z" style="fill:#6a68af"/><path d="M14.7 9.3V8H16v1.3z" class="st9"/><path d="M14.7 9.3H16v1.3h-1.3zm1.3 1.4h1.3V12H16zm1.3-1.4h1.3v1.3h-1.3zM18.7 8H20v1.3h-1.3zM20 9.3h1.3v1.3H20zM13.3 8h1.3v1.3h-1.3zm-2.6 2.7H12V12h-1.3zM12 9.3h1.3v1.3H12z" style="opacity:.5"/><path d="M18.7 10.7H20V12h-1.3zm-5.4 0h1.3V12h-1.3z" class="st9"/></svg>